PathFileType	4	(X/Y/Z)	D:\Share\Shared_Data\Ergonomics\Sit To Stand Pertubation\S2\Perturbed.trc
DataRate	CameraRate	NumFrames	NumMarkers	Units	OrigDataRate	OrigDataStartFrame	OrigNumFrames	
100	100	8	18	m	100	13501	241
Frame#	Time	R_Toe			R_ASIS			R_Pelvis			V_Sacral			L_Pelvis			L_ASIS			Clavical			R_Acromium			L_Acromium			Sternum			Torso			R_Thigh_Med			R_Thigh_Lat			R_Thigh			R_Shank_Med			R_Shank_Lat			R_Shank			R_Heel			
		X1	Y1	Z1	X2	Y2	Z2	X3	Y3	Z3	X4	Y4	Z4	X5	Y5	Z5	X6	Y6	Z6	X7	Y7	Z7	X8	Y8	Z8	X9	Y9	Z9	X10	Y10	Z10	X11	Y11	Z11	X12	Y12	Z12	X13	Y13	Z13	X14	Y14	Z14	X15	Y15	Z15	X16	Y16	Z16	X17	Y17	Z17	X18	Y18	Z18	

13501	135	0.42784842	0.071439278	0.14442221	0.209056	0.87277692	0.15265039	0.14569345	0.91304602	0.20080005	-0.0079240251	0.93451318	0.04801622	0.094281677	0.9306944	-0.13854881	0.1861541	0.89520227	-0.11548058	0.44785037	1.2010289	0.0069234514	0.39925244	1.2767496	0.21544357	0.36497687	1.2876403	-0.17223218	0.39624664	1.0471228	0.009981307	0.42776953	1.1676353	-0.10281361	0.41960422	0.48556616	0.12398392	0.39886343	0.50097137	0.22110692	0.35692337	0.68889508	0.1929449	0.29416064	0.11182183	0.11214172	0.27253845	0.095654129	0.20509373	0.35696762	0.3530925	0.23838692	0.18994508	0.057828087	0.14770537
13502	135.01	0.42788931	0.071161186	0.14444792	0.21362527	0.8793172	0.15294	0.14983211	0.91881409	0.20099693	-0.0036809146	0.94044104	0.048261875	0.098006393	0.93636658	-0.13840776	0.19022456	0.90166376	-0.11548695	0.44811432	1.2110918	0.0074242587	0.39898071	1.2858126	0.21602011	0.36437994	1.2967737	-0.17177267	0.39848618	1.0565223	0.010124282	0.42860461	1.1773955	-0.10261385	0.4185271	0.48592572	0.12374045	0.39798349	0.50147672	0.22061153	0.35927316	0.68975525	0.19284464	0.29420862	0.11178725	0.11210892	0.27256345	0.095687042	0.20504591	0.35615469	0.35357059	0.23820782	0.19003391	0.057645844	0.14759627
13503	135.02	0.4279252	0.070922203	0.14448671	0.21822495	0.88581873	0.15319144	0.15401595	0.92451489	0.20112056	0.00059686494	0.94629291	0.04845961	0.10175582	0.9419621	-0.13830705	0.19431699	0.90807928	-0.11554219	0.44833591	1.2210216	0.0078954201	0.3986861	1.2947526	0.21658803	0.36375525	1.305778	-0.17131573	0.40068118	1.0658212	0.010265879	0.42930972	1.1870251	-0.10242831	0.41733234	0.48630243	0.12347485	0.39699872	0.50201492	0.22011153	0.36151971	0.69057507	0.19269431	0.29423044	0.11175343	0.11208352	0.2725748	0.095719734	0.20500201	0.35526157	0.35406558	0.2380238	0.19012457	0.057409599	0.14747704
13504	135.03	0.42795786	0.070719643	0.14453929	0.22283141	0.89226575	0.15340102	0.15824405	0.93013446	0.20118024	0.0049055333	0.9520567	0.048604164	0.10553468	0.9474696	-0.13824635	0.19843532	0.91444324	-0.11563808	0.44851935	1.2308099	0.0083345652	0.39837509	1.3035618	0.21714331	0.3631026	1.3146488	-0.17086098	0.40284213	1.0750121	0.01040288	0.42992719	1.1965266	-0.10225677	0.4160231	0.48669449	0.12319675	0.39590994	0.50258368	0.21961552	0.36366171	0.69135638	0.19250267	0.29422495	0.11172057	0.1120646	0.27257239	0.095752098	0.20496143	0.35428387	0.35457455	0.23783824	0.19021661	0.057121468	0.14734903
13505	135.04	0.42799185	0.070534355	0.14460411	0.22742726	0.89864178	0.15356683	0.16251663	0.9356615	0.20118492	0.0092387295	0.95771661	0.048691681	0.10934831	0.95287885	-0.13822586	0.20258066	0.92074963	-0.11576183	0.44866956	1.2404506	0.008742322	0.3980509	1.312233	0.21768187	0.36242017	1.3233833	-0.17040779	0.4049805	1.0840878	0.010532184	0.43050656	1.2059036	-0.10209665	0.41460812	0.48710248	0.12291895	0.39471848	0.50318182	0.21913429	0.36569843	0.69210077	0.19228032	0.29419751	0.11168729	0.11204832	0.27256012	0.095786224	0.20491983	0.35322	0.35509662	0.23765222	0.190311	0.056796024	0.14721432
13506	135.05	0.42803253	0.070337105	0.14467735	0.23199683	0.90493243	0.15368735	0.16683009	0.94108795	0.20114088	0.013588367	0.96325519	0.048720909	0.11320199	0.95818066	-0.13824519	0.20674792	0.92698907	-0.11589771	0.44879239	1.2499398	0.0091207533	0.39771207	1.3207589	0.21820018	0.3617038	1.3319811	-0.16995583	0.40710739	1.093041	0.010650778	0.4310936	1.2151576	-0.10194469	0.41310049	0.48752881	0.12265599	0.39342538	0.50380896	0.21867957	0.36762946	0.69280945	0.19203996	0.29415714	0.11165053	0.11202854	0.27254462	0.095825981	0.20486975	0.35207196	0.35563135	0.23746527	0.19040671	0.056468361	0.14707994
13507	135.06	0.42808371	0.070097023	0.14475328	0.23651958	0.91112604	0.15375949	0.17116812	0.94640869	0.20105209	0.017946184	0.96865381	0.048692577	0.11709978	0.96336646	-0.13830304	0.21092403	0.93314783	-0.11602925	0.44889481	1.2592748	0.0094725275	0.3973512	1.3291322	0.21869588	0.36094769	1.3404417	-0.16950526	0.40923169	1.1018658	0.010755324	0.43171616	1.2242883	-0.1017987	0.41151553	0.4879762	0.12242097	0.39203101	0.50446408	0.21826228	0.36945453	0.69348303	0.19179663	0.29411368	0.11160607	0.11199811	0.27253287	0.095876236	0.20480222	0.35084332	0.35617886	0.23727711	0.19050055	0.056184357	0.14695642
13508	135.07	0.42814648	0.069790382	0.14482547	0.24096724	0.9172132	0.15377771	0.17549265	0.9516192	0.20092345	0.02230537	0.97389648	0.048608162	0.12104353	0.96842816	-0.1383967	0.21508832	0.9392052	-0.11614207	0.44898428	1.268454	0.0098009148	0.39695462	1.3373458	0.2191687	0.36014713	1.3487629	-0.16905649	0.41135968	1.1105553	0.01084213	0.43237823	1.2332913	-0.10165833	0.40986835	0.48844583	0.12222292	0.39053531	0.50514417	0.21789059	0.37117374	0.69412109	0.19156625	0.29407492	0.11154941	0.1119505	0.27253046	0.095941925	0.20470853	0.34953665	0.35673972	0.23708832	0.19058987	0.05597794	0.1468508
